<svg width="945" height="1037" viewBox="0 0 945 1037" fill="none" xmlns="http://www.w3.org/2000/svg">
<path d="M619.892 607.77C742.197 578.903 837.029 468.94 837.029 338.337C837.029 181.656 709.215 60.7451 560.762 60.7451H215.812C96.2262 60.7451 0 155.577 0 277.882V815.284C0 933.475 98.9457 1036.54 215.812 1036.54H578.682C724.347 1036.54 883.748 879.854 883.748 735.584C883.748 610.49 857.669 585.736 812.275 536.298C762.837 589.85 695.479 621.507 619.892 624.227C610.27 624.227 610.27 610.49 619.892 607.77Z" fill="#012E6D" fill-opacity="0.549"/>
<path d="M680.638 547.025C802.943 518.157 897.775 408.195 897.775 277.592C897.775 120.91 769.961 0 621.508 0H276.558C156.972 0 60.7461 94.8317 60.7461 217.137V754.539C60.7461 872.73 159.692 975.79 276.558 975.79H639.428C785.093 975.79 944.494 819.109 944.494 674.839C944.494 549.745 918.415 524.991 873.021 475.553C823.583 529.105 756.225 560.762 680.638 563.481C671.016 563.481 671.016 549.745 680.638 547.025Z" fill="#012E6D"/>
<mask id="mask0_16_180" style="mask-type:luminance" maskUnits="userSpaceOnUse" x="225" y="159" width="498" height="207">
<path d="M225.588 159.882H722.966V365.932H225.588V159.882Z" fill="white"/>
</mask>
<g mask="url(#mask0_16_180)">
<mask id="mask1_16_180" style="mask-type:luminance" maskUnits="userSpaceOnUse" x="225" y="159" width="498" height="207">
<path d="M328.578 159.882H619.488C646.752 159.882 672.97 170.76 692.285 190.075C711.6 209.39 722.478 235.608 722.478 262.942C722.478 290.206 711.6 316.424 692.285 335.739C672.97 355.054 646.752 365.932 619.488 365.932H328.578C301.244 365.932 275.026 355.054 255.711 335.739C236.396 316.424 225.588 290.206 225.588 262.942C225.588 235.608 236.396 209.39 255.711 190.075C275.026 170.76 301.244 159.882 328.578 159.882Z" fill="white"/>
</mask>
<g mask="url(#mask1_16_180)">
<path d="M225.588 159.882H722.199V365.932H225.588V159.882Z" fill="white"/>
</g>
</g>
<mask id="mask2_16_180" style="mask-type:luminance" maskUnits="userSpaceOnUse" x="225" y="609" width="341" height="191">
<path d="M225.588 609.008H565.239V799.299H225.588V609.008Z" fill="white"/>
</mask>
<g mask="url(#mask2_16_180)">
<mask id="mask3_16_180" style="mask-type:luminance" maskUnits="userSpaceOnUse" x="225" y="609" width="340" height="191">
<path d="M320.698 609.008H469.779C495.021 609.008 519.217 619.049 537.068 636.899C554.919 654.75 564.89 678.946 564.89 704.118C564.89 729.36 554.919 753.556 537.068 771.407C519.217 789.258 495.021 799.299 469.779 799.299H320.698C295.457 799.299 271.26 789.258 253.41 771.407C235.559 753.556 225.588 729.36 225.588 704.118C225.588 678.946 235.559 654.75 253.41 636.899C271.26 619.049 295.457 609.008 320.698 609.008Z" fill="white"/>
</mask>
<g mask="url(#mask3_16_180)">
<path d="M225.588 609.008H565.239V799.299H225.588V609.008Z" fill="white"/>
</g>
</g>
</svg>
