<svg xmlns="http://www.w3.org/2000/svg" xmlns:xlink="http://www.w3.org/1999/xlink" width="500" zoomAndPan="magnify" viewBox="0 0 375 374.999991" height="500" preserveAspectRatio="xMidYMid meet" version="1.0"><defs><g/><clipPath id="cc1237614f"><path d="M 19.226562 160.148438 L 131.726562 160.148438 L 131.726562 272.648438 L 19.226562 272.648438 Z M 19.226562 160.148438 " clip-rule="nonzero"/></clipPath><clipPath id="3362e5eecd"><path d="M 36.476562 160.148438 L 114.476562 160.148438 C 119.050781 160.148438 123.4375 161.964844 126.671875 165.199219 C 129.90625 168.433594 131.726562 172.824219 131.726562 177.398438 L 131.726562 255.398438 C 131.726562 259.972656 129.90625 264.359375 126.671875 267.59375 C 123.4375 270.832031 119.050781 272.648438 114.476562 272.648438 L 36.476562 272.648438 C 31.902344 272.648438 27.511719 270.832031 24.277344 267.59375 C 21.042969 264.359375 19.226562 259.972656 19.226562 255.398438 L 19.226562 177.398438 C 19.226562 172.824219 21.042969 168.433594 24.277344 165.199219 C 27.511719 161.964844 31.902344 160.148438 36.476562 160.148438 Z M 36.476562 160.148438 " clip-rule="nonzero"/></clipPath><clipPath id="2e1dbe444c"><path d="M 63.292969 195.089844 L 91.160156 195.089844 L 91.160156 206.632812 L 63.292969 206.632812 Z M 63.292969 195.089844 " clip-rule="nonzero"/></clipPath><clipPath id="a23a38b1f4"><path d="M 69.066406 195.089844 L 85.359375 195.089844 C 86.890625 195.089844 88.359375 195.699219 89.441406 196.78125 C 90.523438 197.863281 91.132812 199.332031 91.132812 200.859375 C 91.132812 202.390625 90.523438 203.859375 89.441406 204.941406 C 88.359375 206.023438 86.890625 206.632812 85.359375 206.632812 L 69.066406 206.632812 C 67.535156 206.632812 66.066406 206.023438 64.984375 204.941406 C 63.902344 203.859375 63.292969 202.390625 63.292969 200.859375 C 63.292969 199.332031 63.902344 197.863281 64.984375 196.78125 C 66.066406 195.699219 67.535156 195.089844 69.066406 195.089844 Z M 69.066406 195.089844 " clip-rule="nonzero"/></clipPath><clipPath id="de59e564d0"><path d="M 63.292969 220.25 L 82.320312 220.25 L 82.320312 230.90625 L 63.292969 230.90625 Z M 63.292969 220.25 " clip-rule="nonzero"/></clipPath><clipPath id="161e480faa"><path d="M 68.625 220.25 L 76.976562 220.25 C 78.390625 220.25 79.746094 220.8125 80.746094 221.808594 C 81.746094 222.808594 82.304688 224.164062 82.304688 225.578125 C 82.304688 226.992188 81.746094 228.347656 80.746094 229.347656 C 79.746094 230.347656 78.390625 230.90625 76.976562 230.90625 L 68.625 230.90625 C 67.210938 230.90625 65.855469 230.347656 64.855469 229.347656 C 63.855469 228.347656 63.292969 226.992188 63.292969 225.578125 C 63.292969 224.164062 63.855469 222.808594 64.855469 221.808594 C 65.855469 220.8125 67.210938 220.25 68.625 220.25 Z M 68.625 220.25 " clip-rule="nonzero"/></clipPath><clipPath id="0463f24cee"><path d="M 197.25 162.289062 L 309.75 162.289062 L 309.75 274.789062 L 197.25 274.789062 Z M 197.25 162.289062 " clip-rule="nonzero"/></clipPath><clipPath id="926ee419dd"><path d="M 253.5 162.289062 C 222.4375 162.289062 197.25 187.472656 197.25 218.539062 C 197.25 249.605469 222.4375 274.789062 253.5 274.789062 C 284.566406 274.789062 309.75 249.605469 309.75 218.539062 C 309.75 187.472656 284.566406 162.289062 253.5 162.289062 Z M 253.5 162.289062 " clip-rule="nonzero"/></clipPath><clipPath id="5c39d77546"><path d="M 239.765625 200.0625 L 267.628906 200.0625 L 267.628906 211.605469 L 239.765625 211.605469 Z M 239.765625 200.0625 " clip-rule="nonzero"/></clipPath><clipPath id="a063647375"><path d="M 245.535156 200.0625 L 261.832031 200.0625 C 263.359375 200.0625 264.828125 200.671875 265.910156 201.753906 C 266.992188 202.835938 267.601562 204.304688 267.601562 205.835938 C 267.601562 207.363281 266.992188 208.832031 265.910156 209.914062 C 264.828125 210.996094 263.359375 211.605469 261.832031 211.605469 L 245.535156 211.605469 C 244.003906 211.605469 242.535156 210.996094 241.453125 209.914062 C 240.371094 208.832031 239.765625 207.363281 239.765625 205.835938 C 239.765625 204.304688 240.371094 202.835938 241.453125 201.753906 C 242.535156 200.671875 244.003906 200.0625 245.535156 200.0625 Z M 245.535156 200.0625 " clip-rule="nonzero"/></clipPath><clipPath id="97e7b5d9aa"><path d="M 239.765625 225.222656 L 258.792969 225.222656 L 258.792969 235.882812 L 239.765625 235.882812 Z M 239.765625 225.222656 " clip-rule="nonzero"/></clipPath><clipPath id="acfc74bbfe"><path d="M 245.09375 225.222656 L 253.445312 225.222656 C 254.859375 225.222656 256.214844 225.785156 257.214844 226.785156 C 258.214844 227.785156 258.773438 229.140625 258.773438 230.550781 C 258.773438 231.964844 258.214844 233.320312 257.214844 234.320312 C 256.214844 235.320312 254.859375 235.882812 253.445312 235.882812 L 245.09375 235.882812 C 243.679688 235.882812 242.324219 235.320312 241.324219 234.320312 C 240.324219 233.320312 239.765625 231.964844 239.765625 230.550781 C 239.765625 229.140625 240.324219 227.785156 241.324219 226.785156 C 242.324219 225.785156 243.679688 225.222656 245.09375 225.222656 Z M 245.09375 225.222656 " clip-rule="nonzero"/></clipPath></defs><g clip-path="url(#cc1237614f)"><g clip-path="url(#3362e5eecd)"><path fill="#c2d9ff" d="M 19.226562 160.148438 L 131.726562 160.148438 L 131.726562 272.648438 L 19.226562 272.648438 Z M 19.226562 160.148438 " fill-opacity="1" fill-rule="nonzero"/></g></g><g fill="#012e6d" fill-opacity="0.549"><g transform="translate(50.737196, 244.27749)"><g><path d="M 34.648438 -24.097656 C 41.5 -25.714844 46.8125 -31.875 46.8125 -39.191406 C 46.8125 -47.96875 39.652344 -54.742188 31.335938 -54.742188 L 12.011719 -54.742188 C 5.3125 -54.742188 -0.078125 -49.429688 -0.078125 -42.578125 L -0.078125 -12.472656 C -0.078125 -5.851562 5.464844 -0.078125 12.011719 -0.078125 L 32.339844 -0.078125 C 40.5 -0.078125 49.429688 -8.855469 49.429688 -16.9375 C 49.429688 -23.945312 47.96875 -25.332031 45.425781 -28.101562 C 42.65625 -25.101562 38.882812 -23.328125 34.648438 -23.175781 C 34.109375 -23.175781 34.109375 -23.945312 34.648438 -24.097656 Z M 34.648438 -24.097656 "/></g></g></g><g fill="#012e6d" fill-opacity="1"><g transform="translate(54.140161, 240.874525)"><g><path d="M 34.648438 -24.097656 C 41.5 -25.714844 46.8125 -31.875 46.8125 -39.191406 C 46.8125 -47.96875 39.652344 -54.742188 31.335938 -54.742188 L 12.011719 -54.742188 C 5.3125 -54.742188 -0.078125 -49.429688 -0.078125 -42.578125 L -0.078125 -12.472656 C -0.078125 -5.851562 5.464844 -0.078125 12.011719 -0.078125 L 32.339844 -0.078125 C 40.5 -0.078125 49.429688 -8.855469 49.429688 -16.9375 C 49.429688 -23.945312 47.96875 -25.332031 45.425781 -28.101562 C 42.65625 -25.101562 38.882812 -23.328125 34.648438 -23.175781 C 34.109375 -23.175781 34.109375 -23.945312 34.648438 -24.097656 Z M 34.648438 -24.097656 "/></g></g></g><g clip-path="url(#2e1dbe444c)"><g clip-path="url(#a23a38b1f4)"><path fill="#ffffff" d="M 63.292969 195.089844 L 91.113281 195.089844 L 91.113281 206.632812 L 63.292969 206.632812 Z M 63.292969 195.089844 " fill-opacity="1" fill-rule="nonzero"/></g></g><g clip-path="url(#de59e564d0)"><g clip-path="url(#161e480faa)"><path fill="#ffffff" d="M 63.292969 220.25 L 82.320312 220.25 L 82.320312 230.90625 L 63.292969 230.90625 Z M 63.292969 220.25 " fill-opacity="1" fill-rule="nonzero"/></g></g><g clip-path="url(#0463f24cee)"><g clip-path="url(#926ee419dd)"><path fill="#c2d9ff" d="M 197.25 162.289062 L 309.75 162.289062 L 309.75 274.789062 L 197.25 274.789062 Z M 197.25 162.289062 " fill-opacity="1" fill-rule="nonzero"/></g></g><g fill="#012e6d" fill-opacity="0.549"><g transform="translate(227.206278, 249.251014)"><g><path d="M 34.648438 -24.097656 C 41.5 -25.714844 46.8125 -31.875 46.8125 -39.191406 C 46.8125 -47.96875 39.652344 -54.742188 31.335938 -54.742188 L 12.011719 -54.742188 C 5.3125 -54.742188 -0.078125 -49.429688 -0.078125 -42.578125 L -0.078125 -12.472656 C -0.078125 -5.851562 5.464844 -0.078125 12.011719 -0.078125 L 32.339844 -0.078125 C 40.5 -0.078125 49.429688 -8.855469 49.429688 -16.9375 C 49.429688 -23.945312 47.96875 -25.332031 45.425781 -28.101562 C 42.65625 -25.101562 38.882812 -23.328125 34.648438 -23.175781 C 34.109375 -23.175781 34.109375 -23.945312 34.648438 -24.097656 Z M 34.648438 -24.097656 "/></g></g></g><g fill="#012e6d" fill-opacity="1"><g transform="translate(230.609243, 245.848049)"><g><path d="M 34.648438 -24.097656 C 41.5 -25.714844 46.8125 -31.875 46.8125 -39.191406 C 46.8125 -47.96875 39.652344 -54.742188 31.335938 -54.742188 L 12.011719 -54.742188 C 5.3125 -54.742188 -0.078125 -49.429688 -0.078125 -42.578125 L -0.078125 -12.472656 C -0.078125 -5.851562 5.464844 -0.078125 12.011719 -0.078125 L 32.339844 -0.078125 C 40.5 -0.078125 49.429688 -8.855469 49.429688 -16.9375 C 49.429688 -23.945312 47.96875 -25.332031 45.425781 -28.101562 C 42.65625 -25.101562 38.882812 -23.328125 34.648438 -23.175781 C 34.109375 -23.175781 34.109375 -23.945312 34.648438 -24.097656 Z M 34.648438 -24.097656 "/></g></g></g><g clip-path="url(#5c39d77546)"><g clip-path="url(#a063647375)"><path fill="#ffffff" d="M 239.765625 200.0625 L 267.585938 200.0625 L 267.585938 211.605469 L 239.765625 211.605469 Z M 239.765625 200.0625 " fill-opacity="1" fill-rule="nonzero"/></g></g><g clip-path="url(#97e7b5d9aa)"><g clip-path="url(#acfc74bbfe)"><path fill="#ffffff" d="M 239.765625 225.222656 L 258.792969 225.222656 L 258.792969 235.882812 L 239.765625 235.882812 Z M 239.765625 225.222656 " fill-opacity="1" fill-rule="nonzero"/></g></g></svg>